<svg width="130" height="32" viewBox="0 0 130 32" fill="none" xmlns="http://www.w3.org/2000/svg">
<g clip-path="url(#clip0_22_1015)">
<path d="M37.8562 22.473H47.1602V19.6633H41.163V9.07986H37.8562V22.473Z" fill="#181A1F"/>
<path d="M52.6724 20.5999C51.3459 20.5999 50.6547 19.4385 50.6547 17.6964C50.6547 15.9544 51.3459 14.7743 52.6724 14.7743C53.9988 14.7743 54.7088 15.9544 54.7088 17.6964C54.7088 19.4385 53.9988 20.5999 52.6724 20.5999ZM52.6911 22.7727C55.7737 22.7727 57.7914 20.5811 57.7914 17.6964C57.7914 14.8118 55.7737 12.6201 52.6911 12.6201C49.6271 12.6201 47.572 14.8118 47.572 17.6964C47.572 20.5811 49.6271 22.7727 52.6911 22.7727Z" fill="#181A1F"/>
<path d="M63.1274 25.7886C64.5473 25.7886 65.799 25.4701 66.6397 24.7209C67.4057 24.0278 67.9101 22.9788 67.9101 21.5365V12.8824H64.9957V13.9127H64.9583C64.3978 13.1072 63.5384 12.6014 62.268 12.6014C59.8953 12.6014 58.2512 14.587 58.2512 17.3968C58.2512 20.3376 60.2503 21.9486 62.3988 21.9486C63.5571 21.9486 64.2857 21.4803 64.8462 20.8434H64.9209V21.7987C64.9209 22.9601 64.3791 23.6344 63.09 23.6344C62.0812 23.6344 61.5767 23.2036 61.4086 22.6978H58.4567C58.7557 24.7021 60.4931 25.7886 63.1274 25.7886ZM63.1087 19.682C61.9691 19.682 61.2218 18.7454 61.2218 17.3031C61.2218 15.842 61.9691 14.9054 63.1087 14.9054C64.3791 14.9054 65.0517 15.9919 65.0517 17.2844C65.0517 18.633 64.4352 19.682 63.1087 19.682Z" fill="#181A1F"/>
<path d="M73.9029 20.5999C72.5764 20.5999 71.8851 19.4385 71.8851 17.6964C71.8851 15.9544 72.5764 14.7743 73.9029 14.7743C75.2293 14.7743 75.9393 15.9544 75.9393 17.6964C75.9393 19.4385 75.2293 20.5999 73.9029 20.5999ZM73.9215 22.7727C77.0042 22.7727 79.0221 20.5811 79.0221 17.6964C79.0221 14.8118 77.0042 12.6201 73.9215 12.6201C70.8576 12.6201 68.8025 14.8118 68.8025 17.6964C68.8025 20.5811 70.8576 22.7727 73.9215 22.7727Z" fill="#181A1F"/>
<path d="M79.9111 22.473H82.9564V12.8824H79.9111V22.473ZM79.9111 11.5524H82.9564V9.07986H79.9111V11.5524Z" fill="#181A1F"/>
<path d="M84.2773 25.6387H87.3226V21.4803H87.36C87.9578 22.2857 88.8359 22.7728 90.069 22.7728C92.5724 22.7728 94.2352 20.7872 94.2352 17.6777C94.2352 14.793 92.6845 12.6014 90.1437 12.6014C88.8359 12.6014 87.9018 13.1821 87.2479 14.0438H87.1918V12.8824H84.2773V25.6387ZM89.2843 20.4126C87.9765 20.4126 87.2292 19.3449 87.2292 17.7901C87.2292 16.2354 87.9018 15.0553 89.2282 15.0553C90.536 15.0553 91.1526 16.1417 91.1526 17.7901C91.1526 19.4198 90.4426 20.4126 89.2843 20.4126Z" fill="#181A1F"/>
<path d="M99.194 22.7728C101.697 22.7728 103.547 21.6863 103.547 19.5884C103.547 17.1345 101.567 16.7037 99.8852 16.4227C98.6709 16.1979 97.5873 16.1043 97.5873 15.4299C97.5873 14.8305 98.1664 14.5495 98.9137 14.5495C99.7545 14.5495 100.334 14.8118 100.446 15.6734H103.248C103.099 13.7815 101.641 12.6014 98.9324 12.6014C96.6718 12.6014 94.8036 13.6504 94.8036 15.6734C94.8036 17.9212 96.5784 18.3708 98.2412 18.6518C99.5116 18.8766 100.67 18.9702 100.67 19.8319C100.67 20.45 100.091 20.7872 99.1753 20.7872C98.1664 20.7872 97.5312 20.3189 97.4191 19.3636H94.542C94.6354 21.4803 96.3916 22.7728 99.194 22.7728Z" fill="#181A1F"/>
<path d="M107.683 22.7541C109.009 22.7541 109.85 22.2296 110.541 21.293H110.597V22.4731H113.512V12.8824H110.466V18.2397C110.466 19.3823 109.831 20.1691 108.785 20.1691C107.813 20.1691 107.346 19.5884 107.346 18.5394V12.8824H104.32V19.1763C104.32 21.3117 105.478 22.7541 107.683 22.7541Z" fill="#181A1F"/>
<path d="M114.837 22.4731H117.882V17.0971C117.882 15.9544 118.442 15.149 119.395 15.149C120.311 15.149 120.74 15.7484 120.74 16.7786V22.4731H123.786V17.0971C123.786 15.9544 124.327 15.149 125.299 15.149C126.214 15.149 126.644 15.7484 126.644 16.7786V22.4731H129.689V16.2354C129.689 14.0812 128.606 12.6014 126.439 12.6014C125.206 12.6014 124.178 13.1259 123.431 14.2873H123.393C122.908 13.257 121.955 12.6014 120.703 12.6014C119.321 12.6014 118.405 13.2571 117.807 14.2498H117.751V12.8824H114.837V22.4731Z" fill="#181A1F"/>
<path fill-rule="evenodd" clip-rule="evenodd" d="M6.73692 3.03728C5.62323 3.81805 4.61616 4.74117 3.74193 5.78032C7.31443 5.44778 11.8532 5.99078 17.1226 8.63245C22.7497 11.4533 27.2808 11.5487 30.4343 10.9388C30.1481 10.0702 29.7879 9.23537 29.3612 8.44177C25.7513 8.82351 21.1235 8.31822 15.7301 5.61453C12.3053 3.89762 9.28634 3.19036 6.73692 3.03728ZM27.2525 5.43242C24.4018 2.23894 20.259 0.229187 15.6479 0.229187C14.2938 0.229187 12.98 0.402539 11.7275 0.728293C13.4238 1.19238 15.2259 1.87132 17.1226 2.82217C21.0713 4.80169 24.4805 5.43906 27.2525 5.43242ZM31.1085 13.9877C27.2988 14.7419 22.038 14.587 15.7301 11.4248C9.83296 8.46846 5.13932 8.50569 1.97375 9.21102C1.81036 9.24739 1.65081 9.28564 1.49511 9.32544C1.08066 10.2292 0.749835 11.1795 0.512462 12.1663C0.765989 12.0984 1.02797 12.0339 1.29827 11.9736C5.13865 11.118 10.5648 11.1551 17.1226 14.4427C23.0199 17.399 27.7135 17.3618 30.8791 16.6565C30.9875 16.6324 31.0944 16.6074 31.1995 16.5816C31.211 16.3355 31.2168 16.0879 31.2168 15.8389C31.2168 15.2126 31.1801 14.5948 31.1085 13.9877ZM30.6912 19.8758C26.9185 20.5371 21.8109 20.2833 15.7301 17.2351C9.83296 14.2787 5.13932 14.316 1.97375 15.0213C1.27109 15.1778 0.638988 15.3684 0.0813824 15.5697C0.0798621 15.6593 0.0791016 15.749 0.0791016 15.8389C0.0791016 24.46 7.04951 31.4487 15.6479 31.4487C22.8541 31.4487 28.9167 26.5401 30.6912 19.8758Z" fill="url(#paint0_linear_22_1015)"/>
</g>
<defs>
<linearGradient id="paint0_linear_22_1015" x1="15.6479" y1="0.229187" x2="15.6479" y2="31.4487" gradientUnits="userSpaceOnUse">
<stop stop-color="#2D66F8"/>
<stop offset="0.520833" stop-color="#2A5EE6"/>
<stop offset="1" stop-color="#2554CC"/>
</linearGradient>
<clipPath id="clip0_22_1015">
<rect width="130" height="32" fill="white"/>
</clipPath>
</defs>
</svg>
